<?xml version="1.0" encoding="utf-8"?>
<!-- Generator: Adobe Illustrator 25.4.1, SVG Export Plug-In . SVG Version: 6.00 Build 0)  -->
<svg version="1.1" id="Layer_1" xmlns="http://www.w3.org/2000/svg" xmlns:xlink="http://www.w3.org/1999/xlink" x="0px" y="0px"
	 viewBox="0 0 146 41" style="enable-background:new 0 0 146 41;" xml:space="preserve">
<style type="text/css">
	.st0{fill:#8BC53F;}
	.st1{fill:#2C5D2D;}
</style>
<g>
	<path class="st0" d="M99.02,12.11c-0.04-0.28-0.09-0.52-0.11-0.78c-0.04-0.44-0.04-0.78-0.13-1.22c-0.1-0.45-0.09-0.9-0.17-1.34
		c-0.05-0.31-0.19-0.54-0.42-0.63c-0.25-0.1-0.41,0.06-0.64,0.15c-0.24,0.1-0.18,0.19-0.16-0.22c0.01-0.24,0.07-0.48,0.07-0.72
		c0.01-0.3-0.05-0.48-0.23-0.66c-0.11-0.11-0.26-0.19-0.38-0.29c-0.24-0.19-0.38-0.36-0.56-0.66c-0.22-0.37-0.35-0.49-0.69-0.59
		c-0.43-0.13-0.85-0.37-1.28-0.48c-0.09-0.02-0.17,0.06-0.22,0.15c-0.24,0.41-0.32,0.79-0.7,0.98c-0.12,0.06-0.32,0.18-0.5,0.25
		c0.05-0.2,0.13-0.39,0.1-0.63c-0.05-0.44-0.36-0.71-0.5-1.08c-0.31-0.8,0.48-1.98,0.07-2.68c-0.07-0.11-0.2-0.15-0.29-0.08
		c-0.17,0.11-0.34-0.07-0.52-0.07c-0.14,0-0.28,0.04-0.42,0.09c-0.21,0.08-0.4,0.23-0.63,0.23c-0.28,0-0.43-0.17-0.67-0.34
		c-0.35-0.25-1.57-0.8-1.47,0.31c0.03,0.34,0.19,0.51,0.15,0.89c-0.01,0.11-0.07,0.59-0.24,0.58c-0.09,0,0-0.02-0.06-0.12
		c-0.25-0.42-0.34-1-0.63-1.43c-0.23-0.33-0.58-0.51-0.91-0.58c-0.33-0.08-0.77-0.19-1.13-0.11c-0.08-0.06-0.19-0.01-0.25,0.08
		c-0.12,0.19-0.11,0.27-0.14,0.5c-0.04,0.3,0.03,0.25-0.23,0.41c-0.23,0.14-0.54,0.48-0.78,0.54c-0.25,0.07-0.63-0.29-0.88-0.36
		c-0.34-0.1-0.69,0.09-1.01,0.23c-0.35,0.16-0.63,0.36-0.93,0.67c-0.25,0.27-0.6,0.7-0.73,1.08c-0.11,0.31-0.03,0.61-0.01,0.92
		c0.03,0.57-0.24,0.74-0.48,1.14c-0.55,0.24-1.01,0.68-1.24,1.46c-0.12,0.4-0.1,0.8-0.15,1.22c-0.06,0.56-0.14,0.63-0.45,0.94
		c-0.12,0.12-0.29,0.28-0.39,0.42c-0.56,0.76-0.18,1.9-0.12,2.78c0.03,0.46,0.07,0.49,0.29,0.76c0.18,0.23,0.29,0.09,0.29,0.58
		c0,0.05,0,0.1-0.01,0.14c-0.08-0.13-0.17-0.23-0.29-0.26c-0.25-0.07-0.49,0.21-0.59,0.5c-0.09-0.02-0.17-0.04-0.25-0.06
		c-0.64-0.16-0.91-0.29-1.02-1.27c-0.05-0.47-0.12-0.91-0.31-1.31c-0.18-0.38-0.36-0.51-0.66-0.66c-0.34-0.18-0.61-0.48-0.94-0.66
		c-0.78-0.43-1.45-0.76-2.32-0.37c-0.31,0.14-0.54,0.46-0.8,0.7c-0.3,0.27-0.28-0.08-0.6-0.15c-0.55-0.13-1.62,0.11-2.06,0.6
		c-0.25,0.28-0.23,0.75-0.46,1.06c-0.15,0.2-0.11,0.26-0.27-0.01c-0.09-0.14-0.09-0.3-0.2-0.43c-0.39-0.43-1.08,0.26-1.44,0.47
		c-0.27,0.16-0.37,0.27-0.54,0.62c-0.2,0.42-0.42,0.95-0.86,0.76c-0.6-0.27-1.02-1.18-1.6-0.37c-0.59,0.82-1.2,1.73-1.68,2.67
		c-0.41,0.8-0.94,1.92-0.74,2.94c0.11,0.55,0.42,1.16,0.68,1.6c0.25,0.44,0.34,0.7,0.45,1.23c0.04,0.22,0.11,0.43,0.15,0.64
		c0.11,0.5,0.2,0.99,0.32,1.48c0.11,0.46,0.03,0.73-0.11,1.14c-0.06,0.19-0.13,0.25-0.13,0.49c-0.01,1.06,0.95,1.4,1.51,1.68
		c0.49,0.25,0.99,0.01,1.27-0.54c0.1,0.23,0.2,0.47,0.26,0.7c0.19,0.64-0.06,0.6-0.22,0.97c-0.19,0.44-0.08,0.97,0.08,1.43
		c0.27,0.81,0.62,2.53,1.51,2.12c0.34-0.16,0.46-0.21,0.79-0.11c0.17,0.05,0.33,0.1,0.5,0.12c0.58,0.08,0.65,0.12,1.02,0.7
		c0.18,0.29,0.42,0.53,0.62,0.78c0.1,0.13,0.17,0.27,0.32,0.31c0.36,0.1,0.68-0.49,0.95-0.74c0.31,0.27,0.53,0.77,0.79,1.08
		c0.27,0.33,0.51,0.36,0.87,0.35c0.46-0.01,0.69-0.06,1.02,0.38c0.2,0.28,0.4,0.55,0.65,0.75c0.44,0.37,0.84,0.34,1.34,0.45
		c0.65,0.14,1.04,0.58,1.47,1.2c0.14,0.21,0.33,0.39,0.46,0.62c0.11,0.2,0.15,0.46,0.3,0.63c0.31,0.37,0.84,0.36,1.26,0.4
		c-0.31-0.58-0.54-1.31-0.72-1.84c-0.23-0.69-0.45-1.41-0.65-2.13c-0.17-0.25-0.35-0.48-0.55-0.76c-0.31-0.44-0.6-0.71-1.01-0.96
		c-0.33-0.2-0.67-0.37-1.01-0.55c-0.72-0.37-1.49-0.4-2.19-0.82c-0.68-0.41-1.44-0.68-2.01-1.35c-0.07-0.08,0.01-0.23,0.09-0.15
		c0.43,0.47,0.92,0.65,1.43,0.88c0.4,0.18,0.8,0.42,1.21,0.52c0.8,0.2,1.51,0.35,2.28,0.73c0.58,0.28,0.99,0.59,1.42,1.07
		c-0.23-1.11-0.49-2.23-0.83-3.3c-0.05-0.08-0.1-0.16-0.16-0.23c-0.24-0.32-0.49-0.62-0.79-0.86c-0.63-0.49-1.36-0.64-2.05-0.87
		c-0.58-0.19-1.15-0.35-1.73-0.46c-0.55-0.1-1.07-0.22-1.61-0.41c-0.51-0.18-0.88-0.48-1.34-0.82c-1.05-0.78-2.22-1.42-3.03-2.65
		c-0.06-0.08,0.05-0.19,0.1-0.11c0.56,0.79,1.33,1.32,2.04,1.81c0.52,0.36,1.06,0.77,1.6,1.08c1.02,0.59,2.22,0.41,3.3,0.65
		c0.99,0.22,2.14,0.45,3.03,1.14c-0.28-0.63-0.6-1.22-0.98-1.75c-0.54-0.76-1.17-1.46-1.67-2.28c-0.07-0.05-0.15-0.09-0.22-0.13
		c-0.45-0.24-0.87-0.54-1.32-0.77c-1.06-0.56-2.27-0.59-3.36-1.04c-0.96-0.39-1.93-0.94-2.68-1.86c-0.6-0.73-1.39-1.74-1.5-2.88
		c-0.02-0.17,0.17-0.2,0.19-0.03c0.12,0.78,0.68,1.5,1.07,2.02c0.46,0.61,0.92,1.07,1.49,1.46c0.81,0.56,1.77,0.9,2.68,0.98
		c1.05,0.1,2.17,0.44,3,1.32c0.08,0.09,0.17,0.17,0.26,0.25c-0.57-0.98-1.24-1.96-1.93-2.76c-0.67-0.77-1.29-1.63-1.78-2.62
		c-0.46-0.92-1.08-1.92-1.29-3.02c-0.02-0.12,0.13-0.18,0.16-0.06c0.29,1.19,0.98,2.35,1.53,3.34c0.59,1.06,1.36,1.79,2.07,2.67
		c0.31,0.38,0.6,0.78,0.89,1.18c-0.12-0.57-0.18-1.15-0.2-1.72c-0.02-0.49,0.05-0.93,0.07-1.41c0.04-0.63-0.05-1.34-0.14-1.96
		c-0.15-0.98-0.5-1.95-0.59-2.94c-0.01-0.14,0.13-0.16,0.16-0.03c0.2,1.02,0.52,1.98,0.72,3c0.16,0.84,0.22,1.64,0.2,2.5
		c-0.04,1.13,0.14,2.19,0.5,3.17c0.13,0.35,0.23,0.64,0.41,0.92c0.11,0.17,0.22,0.33,0.32,0.51c0.39,0.51,0.81,1,1.21,1.5
		c-0.01-0.77,0.21-1.55,0.29-2.31c0.13-1.26,0.04-2.56-0.09-3.81c-0.05-0.52-0.02-1-0.01-1.53c0.01-0.41-0.07-1.05,0.06-1.44
		c0.06-0.19,0.27-0.07,0.22,0.13c-0.08,0.33,0.01,1.21,0,1.58c-0.01,0.5,0,0.95,0.05,1.44c0.1,0.94,0.21,1.94,0.19,2.89
		c-0.01,1.19-0.49,2.64-0.13,3.78c0.02,0.07,0.05,0.14,0.07,0.2c0.26,0.4,0.49,0.83,0.7,1.28c0.01,0.1,0.02,0.2,0.05,0.3
		c0.07,0.25,0.17,0.39,0.3,0.5c0.18,0.46,0.35,0.93,0.5,1.42c0.05-0.25,0.11-0.48,0.16-0.69c0,0,0,0.01,0.01,0.01
		c0.11,0.11,0.24,0.17,0.37,0.25c-0.08,0.31-0.14,0.62-0.17,0.95c-0.03,0.26-0.02,0.51,0,0.76c0.05,0.17,0.09,0.34,0.13,0.52
		c0.29,1.17,0.53,2.38,0.88,3.52c0.16,0.52,0.35,1.05,0.55,1.55c0.14,0.37,0.3,0.68,0.47,0.97c-0.08,0.17-0.14,0.35-0.16,0.52
		c0.27-0.77,0.58-1.52,0.82-2.3c0.39-1.28,1.11-2.29,1.53-3.54c0.12-0.36,0.23-0.71,0.34-1.07c0.03-0.34,0.05-0.68,0.02-1.02
		c-0.06-0.69-0.07-1.51-0.28-2.15c-0.23-0.68-0.56-1.28-0.86-1.89c-0.18-0.37-0.31-0.77-0.52-1.12c-0.1-0.16-0.18-0.24-0.25-0.43
		c-0.03-0.09,0.07-0.13,0.1-0.05c0.16,0.39,0.49,0.64,0.67,1.04c0.16,0.36,0.37,0.62,0.56,0.96c0.16,0.28,0.26,0.61,0.41,0.9
		c0.14,0.28,0.27,0.54,0.36,0.85c0.12,0.42,0.21,0.89,0.27,1.37c0.39-1.35,0.77-2.72,1.2-4.06c0.03-0.11,0.07-0.21,0.1-0.32
		c-0.02-0.14-0.05-0.27-0.07-0.39c-0.15-0.82-0.55-1.76-0.96-2.4c-0.81-1.26-2.03-2.52-2.21-4.28c-0.01-0.13,0.13-0.15,0.15-0.03
		c0.14,1.18,0.88,2.07,1.51,2.82c0.56,0.66,0.98,1.39,1.44,2.15c0.21,0.35,0.35,0.74,0.45,1.15c0.36-1.08,0.72-2.15,1.08-3.22
		c-0.02-0.34,0.04-0.64-0.04-1.01c-0.12-0.52-0.31-1.12-0.52-1.57c-0.44-0.94-0.92-1.89-1.42-2.77c-0.3-0.53-0.62-0.99-0.87-1.58
		c-0.18-0.43-0.3-0.89-0.46-1.34c-0.15-0.43-0.36-0.81-0.46-1.28c-0.11-0.53-0.09-1.06-0.07-1.6c0-0.06,0.07-0.06,0.08,0
		c0.03,0.78,0.1,1.46,0.39,2.16c0.17,0.4,0.31,0.8,0.45,1.21c0.42,1.2,1.13,2.24,1.81,3.18c0.62,0.87,1.28,2.04,1.55,3.3
		c0.17-0.5,0.34-1.01,0.5-1.51c0.05-0.17,0.11-0.33,0.16-0.5c0-0.03-0.01-0.05-0.01-0.08c-0.08-0.61-0.26-1.26-0.4-1.86
		c-0.31-1.32-0.65-2.63-0.98-3.94c-0.28-1.12-0.23-2.46-0.06-3.6c0.19-1.17,0.36-2.54,0.98-3.46c0.03-0.05,0.09,0.01,0.06,0.06
		c-0.62,1.19-0.94,3.16-0.93,4.6c0,0.58,0.08,1.28,0.17,1.86c0.09,0.58,0.36,1.18,0.52,1.73c0.32,1.12,0.74,2.33,0.96,3.55
		c0.03-0.1,0.05-0.21,0.08-0.31c0.13-0.56,0.34-1.06,0.46-1.62c0.23-1.05,0.34-2.15,0.46-3.22c0.14-1.22,0.48-2.41,0.66-3.63
		c0.15-1,0.11-2.16,0.4-3.1c0.03-0.1,0.15-0.03,0.12,0.07c-0.21,0.7-0.12,1.5-0.19,2.24c-0.07,0.67-0.17,1.33-0.28,1.99
		c-0.21,1.27-0.31,2.54-0.47,3.82c-0.11,0.82-0.25,1.62-0.42,2.4c-0.01,0.04-0.01,0.07-0.02,0.11c-0.1,0.56-0.29,1.17-0.33,1.73
		c-0.01,0.14-0.02,0.28-0.03,0.42c0.22-0.27,0.46-0.52,0.71-0.75c0.6-0.55,1.13-1.21,1.76-1.66c0.24-0.17,0.43-0.42,0.66-0.61
		c0.22-0.19,0.46-0.27,0.68-0.48c0.48-0.43,0.89-1.04,1.21-1.67c0.17-0.33,0.33-0.52,0.37-0.94c0.04-0.33,0.06-0.68,0.08-1.01
		c0.04-0.59-0.02-1.39-0.08-1.98c0-0.03,0.03-0.05,0.04-0.01c0.24,0.98,0.32,2.43,0.1,3.43c-0.22,1.01-0.96,2.08-1.6,2.65
		c-0.24,0.21-0.5,0.35-0.73,0.57c-0.2,0.19-0.39,0.38-0.6,0.54c-0.41,0.3-0.73,0.71-1.11,1.07c-0.63,0.62-1.24,1.15-1.64,1.99
		c-0.05,0.35-0.12,0.71-0.2,1.07c-0.07,0.29-0.14,0.59-0.22,0.89c0.08-0.07,0.16-0.14,0.24-0.2c0.83-0.64,1.8-1.03,2.74-1.25
		c1.16-0.28,2.46-0.78,3.5-1.56c0.54-0.41,1.04-0.8,1.54-1.29c0.55-0.54,0.95-1.11,1.38-1.81c0.02-0.04,0.07,0.01,0.05,0.05
		c-0.6,1.15-1.29,2.14-2.18,2.9c-0.93,0.79-1.91,1.37-2.96,1.81c-1.09,0.46-2.29,0.64-3.33,1.31c-0.53,0.34-0.96,0.71-1.33,1.31
		c-0.1,0.34-0.21,0.67-0.33,0.99c-0.32,0.89-0.55,1.84-0.91,2.69c0.31-0.34,0.64-0.69,0.99-0.94c0.34-0.24,0.71-0.28,1.08-0.39
		c1-0.29,2.08-0.25,3.05-0.67c0.56-0.24,1.09-0.7,1.5-1.26c0.3-0.4,0.54-0.94,0.88-1.28c0.06-0.06,0.12,0.06,0.07,0.12
		c-0.37,0.42-0.6,1.11-0.95,1.57c-0.27,0.35-0.6,0.68-0.93,0.93c-0.7,0.53-1.52,0.68-2.31,0.84c-0.55,0.11-1.09,0.27-1.63,0.45
		c-0.47,0.15-0.82,0.49-1.2,0.91c-0.37,0.41-0.78,0.8-1.08,1.31c-0.03,0.06-0.07,0.12-0.1,0.18c-0.33,1.12-0.57,2.28-0.88,3.42
		c0.36-0.56,0.81-1.01,1.32-1.3c0.3-0.17,0.64-0.19,0.95-0.33c0.35-0.15,0.72-0.29,1.07-0.47c0.6-0.3,1.28-0.8,1.79-1.3
		c0.07-0.06,0.14,0.07,0.08,0.14c-0.91,0.97-1.9,1.85-3.04,2.3c-0.66,0.26-1.29,0.55-1.74,1.31c-0.38,0.63-0.72,1.29-1.1,1.92
		c-0.01,0.02-0.03,0.04-0.04,0.05c-0.2,0.62-0.4,1.24-0.63,1.83c-0.36,0.91-0.75,1.8-1.1,2.7c-0.2,0.49-0.39,0.94-0.55,1.46
		c-0.02,0.07-0.04,0.14-0.06,0.21c0.04,0.02,0.08,0.04,0.11,0.06c0.41,0.2,0.74,0.14,1.16,0.18c0.29,0.03,0.68,0.13,0.95,0.04
		c0.42-0.14,0.42-0.72,0.46-1.22c0.22,0.22,0.49,0.35,0.81,0.34c0.51-0.01,1.06-0.05,1.56,0.18c0.11,0.05,0.22-0.01,0.29-0.13
		c0.13-0.23,0.17-0.45,0.33-0.68c0.12-0.18,0.26-0.29,0.36-0.5c0.18-0.37,0.18-0.59,0.14-0.97c-0.06-0.59-0.14-0.77,0.31-0.88
		c0.17-0.04,0.35-0.03,0.53-0.08c0.36-0.1,0.66-0.29,1-0.45c0.24-0.11,0.6-0.2,0.75-0.52c0.12-0.26-0.01-0.56-0.02-0.84
		c-0.02-0.6,0.12-0.57-0.15-1.02c-0.22-0.37-0.55-0.98-0.26-1.42c0.03-0.05,0.09-0.1,0.16-0.15c0.23,0.23,0.44,0.52,0.74,0.41
		c0.54-0.19,0.85-1.07,1.35-1.27c0.1-0.04,0.2-0.21,0.13-0.35c-0.06-0.13-0.31-0.68-0.29-0.8c0.07-0.41,0.67-0.74,0.88-0.92
		c0.39-0.34,0.97-1.2,0.87-1.87c0.17-0.1,0.45-0.18,0.53-0.22c0.26-0.12,0.52-0.2,0.78-0.3c0.26-0.09,0.66-0.12,0.8-0.49
		c0.14-0.38-0.04-0.87-0.19-1.18c-0.19-0.39-0.29-0.61-0.14-1.08c0.08-0.25,0.05-0.15,0.18,0.04c0.18,0.26,0.49,0.51,0.73,0.27
		c0.26-0.26,0.18-0.81,0.22-1.2c0.05-0.48,0.09-0.88,0.34-1.26c0.14-0.21,0.35-0.37,0.46-0.62c0.09-0.21,0.08-0.42,0.07-0.64
		c0.2,0.28,0.46,0.51,0.68,0.42c0.48-0.2,0.37-1.35,0.66-1.78c0.47-0.69,0.45-1.29,0.49-2.19c0.02-0.49-0.02-0.98,0.03-1.47
		c0.06-0.58,0.01-1.15,0.27-1.64C99.06,13.44,99.13,12.98,99.02,12.11z"/>
</g>
<g>
	<path class="st1" d="M10.86,35.91c0.62,1.94,0.72,2.23,4.19,2.23c2.28,0,4.1-0.24,4.1-0.24c0.12,0.36,0.1,1.2,0,1.32
		c0,0-2.4,0.36-5.15,0.36c-4.31,0-4.91-0.36-5.42-2.28l-0.62-2.44c-0.19-0.72-0.41-0.77-1.77-0.77H6.07c-1.92,0-2.35,0.14-2.52,0.81
		c-0.36,1.41-0.7,4.31-0.7,4.31c-0.19,0.02-0.24,0.02-0.53,0.02c-0.79,0-1.8-0.05-2.13-0.14c1.37-4.67,2.64-9.58,3.93-14.98
		c0.53-0.05,1.22-0.1,1.87-0.1c0.65,0,1.25,0.05,1.61,0.1c0.74,3.07,1.87,7.43,2.9,10.66L10.86,35.91z M6.48,28.19
		c-0.31-1.2-0.43-1.68-0.72-1.68c-0.34,0-0.5,0.67-0.81,1.87L4.3,30.95c-0.12,0.5-0.22,0.86-0.22,1.1c0,0.55,0.31,0.58,1.63,0.58
		h0.12c1.08,0,1.56-0.02,1.56-0.6c0-0.24-0.07-0.48-0.19-1.01L6.48,28.19z"/>
	<path class="st1" d="M13.14,36.92c0,0,0.17-5.25,0.17-8.84c0-2.16-0.26-2.32-1.58-2.32c-0.72,0-1.44,0.07-1.44,0.07
		c-0.12-0.05-0.26-1.03-0.1-1.82c3.07,0.07,5.56,0.12,8.46,0.12c0.1,0.24,0.05,1.15,0,1.34l-0.96,0.02
		c-1.77,0.05-2.13,0.19-2.25,0.67c-0.07,0.29-0.12,1.08-0.12,1.92c0,6.35,0.14,8.75,0.14,8.75C15.3,36.87,13.98,36.99,13.14,36.92z"
		/>
	<path class="st1" d="M21.81,24.12c0,0-0.24,5.39-0.24,9.95c0,2.16,0.07,2.83,0.48,3.23c0.53,0.53,1.63,0.6,2.71,0.6
		c1.32,0,2.42-0.12,2.42-0.12c0.07,0.19,0.12,1.29,0.05,1.61c0,0-0.89-0.05-4-0.05c-1.92,0-3.91,0.12-3.91,0.12s0.1-2.52,0.1-5.63
		c0-7.67-0.19-9.58-0.19-9.58C19.9,24.12,20.97,24.07,21.81,24.12z"/>
	<path class="st1" d="M34.58,35.93c0.58,1.87,0.72,2.08,2.64,2.08c0.72,0,1.22-0.05,1.22-0.05c0.12,0.24,0.1,1.2,0,1.32
		c0,0-1.08,0.21-2.88,0.21c-2.4,0-2.8-0.46-3.26-2.2l-0.62-2.44c-0.19-0.72-0.41-0.77-1.77-0.77h-0.12c-1.92,0-2.23,0.14-2.4,0.81
		c-0.36,1.41-0.48,2.4-0.48,2.4c-0.19,0.02-0.36,0.02-0.65,0.02c-0.79,0-1.77-0.05-2.11-0.14c1.37-4.55,2.4-8.15,3.69-13.06
		c0.53-0.05,1.22-0.1,1.87-0.1c0.65,0,1.25,0.05,1.61,0.1c0.74,3.07,1.92,7.4,2.9,10.64L34.58,35.93z M30.2,28.19
		c-0.31-1.2-0.43-1.68-0.72-1.68c-0.34,0-0.5,0.67-0.81,1.87l-0.65,2.56c-0.12,0.5-0.22,0.86-0.22,1.1c0,0.55,0.31,0.58,1.63,0.58
		h0.12c1.08,0,1.56-0.02,1.56-0.6c0-0.24-0.07-0.48-0.19-1.01L30.2,28.19z"/>
	<path class="st1" d="M35.97,37.04c0,0,0.05-1.65,0.05-6.33c0-3.83-0.19-6.28-0.19-6.28c0.29-0.17,2.3-0.14,2.68-0.07
		c1.46,2.99,3.43,6.88,5.1,9.99c0.17,0.31,0.26,0.46,0.5,0.46c0.17,0,0.26-0.02,0.29-0.36c0.02-0.34,0.07-1.34,0.07-2.3
		c0-2.87-0.26-5.7-0.26-5.7c0.29-0.05,1.51-0.12,2.23,0c0,0-0.14,4.51-0.14,7.98c0,3.83,0.07,4.79,0.07,4.79
		c-0.26,0.12-2.23,0.29-2.9,0.12c-1.58-3.36-3.19-6.52-4.86-9.71c-0.24-0.46-0.31-0.55-0.53-0.55c-0.14,0-0.26,0.07-0.26,0.38
		c0,4.72,0.14,7.48,0.14,7.48C37.65,37.04,36.38,37.11,35.97,37.04z"/>
	<path class="st1" d="M49.08,29.75c0-1.8-0.05-2.78-0.14-3.16c-0.14-0.58-0.34-1.03-3.83-1.1l-5.18-0.12
		c-0.07-0.17-0.14-0.98-0.02-1.29C41.12,24.05,47.26,24,50.25,24c2.76,0,4.19,0.05,6.04,0.1c0.1,0.26,0.05,1.15,0,1.34l-1.85,0.05
		c-2.61,0.07-2.97,0.17-3.14,0.67c-0.12,0.36-0.19,1.68-0.19,3.71c0,7.43,0.19,9.44,0.19,9.44c-0.17,0.05-2.04,0.12-2.4,0
		C48.91,39.31,49.08,34.66,49.08,29.75z"/>
	<path class="st1" d="M55.76,26.59c0.07,0.38,0,1.63-0.12,1.85c-0.31,0.12-2.01,0.07-2.56-0.05c-0.05-0.36-0.05-1.41,0.07-1.8
		C53.99,26.47,55.26,26.49,55.76,26.59z M55.38,39.22c-0.36,0.12-1.96,0.12-2.13,0.07c0,0,0.02-2.95,0.02-4.98s-0.07-5.03-0.07-5.03
		c0.43-0.17,1.8-0.17,2.28-0.12L55.38,39.22z"/>
	<path class="st1" d="M57.1,28.38C57.08,24.36,58.54,24,61.51,24c3.16,0,4.39,0.12,4.41,2.87c0,0.6-0.12,1.27-0.12,1.27
		c-0.43,0.1-1.05,0.14-1.75,0.1c0-1.97-0.02-2.09-2.11-2.09c-2.49,0-2.52,0.07-2.52,2.76c0,1.56,0.07,1.8,2.11,1.8
		c4.07,0,4.55,0.12,4.55,4.19c0,4.27-1.58,4.43-4.53,4.43c-2.85,0-4.38-0.6-4.38-3.71c0-0.48,0.05-1.08,0.05-1.08
		c0.7-0.12,1.46-0.12,2.2-0.05c0,0-0.1,0.65-0.1,1.13c0,1.41,0.41,1.44,3.4,1.44c1.32,0,1.49-0.24,1.49-1.92
		c0-2.4-0.1-2.52-2.76-2.52C58.06,32.63,57.1,32.36,57.1,28.38z"/>
</g>
<g>
	<path class="st1" d="M94.94,28.79c0,0.72,0.05,1.34,0.14,1.63c0.12,0.36,0.41,0.41,2.2,0.41c1.56,0,2.92-0.12,2.92-0.12
		c0.12,0.48,0.07,1.46,0.02,1.75c0,0-1.75-0.12-2.95-0.12c-1.2,0-1.56,0.05-1.68,0.41c-0.12,0.34-0.12,1.44-0.12,2.28
		c0,2.28,0.19,4.31,0.19,4.31c-0.89,0.05-2.44,0-2.8-0.07c0,0,0.1-1.73,0.1-5.92c0-5.87-0.38-9.35-0.38-9.35s4.55,0.12,7.96,0.12
		c0.07,0.48,0.07,1.27,0.02,1.87c0,0-2.56-0.19-3.88-0.19c-1.08,0-1.44,0.12-1.56,0.48C94.94,26.85,94.94,28.07,94.94,28.79z"/>
	<path class="st1" d="M110.35,35.91c0.6,1.87,0.72,2.11,2.64,2.11c0.72,0,1.22-0.05,1.22-0.05c0.12,0.24,0.1,1.2,0,1.32
		c0,0-1.08,0.21-2.88,0.21c-2.4,0-2.8-0.46-3.26-2.2l-0.62-2.44c-0.19-0.72-0.41-0.77-1.77-0.77h-0.12c-1.92,0-2.35,0.14-2.52,0.81
		c-0.36,1.41-0.7,4.31-0.7,4.31c-0.19,0.02-0.36,0.02-0.53,0.02c-0.55,0-1.51-0.02-2.13-0.1c1.37-4.67,2.64-9.68,3.93-15.07
		c0.53-0.02,1.22-0.05,1.87-0.05c0.65,0,1.25,0.02,1.61,0.05c0.74,3.07,1.87,7.48,2.9,10.71L110.35,35.91z M105.96,28.19
		c-0.31-1.2-0.43-1.68-0.72-1.68c-0.34,0-0.5,0.67-0.81,1.87l-0.65,2.56c-0.12,0.5-0.22,0.86-0.22,1.1c0,0.55,0.31,0.58,1.63,0.58
		h0.12c1.08,0,1.56-0.02,1.56-0.6c0-0.24-0.07-0.48-0.19-1.01L105.96,28.19z"/>
	<path class="st1" d="M115.47,24.07h0.12c3.71,0,5.63,1.37,5.66,4.24c0,2.52-1.2,3.43-2.28,3.83c0.89,0.24,1.68,0.84,1.68,2.16
		c0,0.72-0.07,1.32-0.07,2.04c0,1.44,0.31,1.75,3.67,1.75c3.47,0,5.3-0.26,5.3-0.26c0.12,0.24,0.12,1.39,0,1.51
		c0,0-3.12,0.24-6.23,0.24c-4.07,0-5.03-0.36-5.06-2.52c0-0.96,0.07-1.68,0.07-2.16c0-0.53-0.05-1.01-0.24-1.37
		c-0.19-0.34-0.67-0.67-1.99-0.67c-1.39,0-1.61,0.17-1.7,0.36c-0.14,0.29-0.17,0.72-0.17,2.04c0,0.6,0.07,1.56,0.07,1.56
		c-0.24,0.07-1.96,0.19-2.56,0.07c0,0,0.07-1.99,0.07-4.38v-0.24c0-5.99-0.12-8.03-0.12-8.03S112.48,24.07,115.47,24.07z
		 M118.61,30.95c0.41-0.41,0.41-1.13,0.41-2.4c0-0.96-0.07-1.8-0.36-2.2c-0.24-0.36-0.77-0.55-2.56-0.55
		c-1.32,0-1.63,0.07-1.87,0.31c-0.34,0.34-0.36,1.49-0.36,3.52c0,0.84,0.05,1.25,0.36,1.56c0.19,0.19,0.55,0.31,1.27,0.31
		C117.1,31.5,118.18,31.38,118.61,30.95z"/>
	<path class="st1" d="M129.52,31.91c0.96-2.16,1.92-4.96,2.78-7.84c0.38-0.07,2.66-0.07,2.95,0.05c0,0-0.1,3.59-0.1,8.39
		c0,3.95,0.1,6.66,0.1,6.66c-0.46,0.1-2.28,0.1-2.47,0.05c0.1-3.04,0.17-7.45,0.17-10.35c0-0.48-0.02-0.55-0.19-0.55
		c-0.17,0-0.22,0.12-0.41,0.6c-0.96,2.4-1.99,5.1-2.78,7.5c-0.26,0.12-1.22,0.17-1.73,0.05c-0.72-2.59-1.73-5.87-2.44-8.03
		c-0.14-0.43-0.22-0.53-0.38-0.53c-0.17,0-0.17,0.1-0.19,0.7c-0.02,0.6-0.05,1.51-0.05,3.07c0,3.59,0.1,5.03,0.1,5.03
		c-0.19,0.05-1.51,0.1-1.92,0.05c0,0,0.14-2.2,0.14-5.92c0-3.59-0.07-6.54-0.07-6.54c0.36-0.12,3.21-0.24,3.59-0.17
		c0.79,2.64,1.58,5.51,2.3,7.67c0.07,0.22,0.14,0.48,0.31,0.48C129.37,32.27,129.42,32.12,129.52,31.91z"/>
	<path class="st1" d="M136.82,28.38c-0.02-4.03,1.44-4.38,4.41-4.38c3.16,0,4.39,0.12,4.41,2.87c0,0.6-0.12,1.27-0.12,1.27
		c-0.43,0.1-1.05,0.14-1.75,0.1c0-1.97-0.02-2.09-2.11-2.09c-2.49,0-2.52,0.07-2.52,2.76c0,1.56,0.07,1.8,2.11,1.8
		c4.07,0,4.55,0.12,4.55,4.19c0,4.27-1.58,4.43-4.53,4.43c-2.85,0-4.38-0.6-4.38-3.71c0-0.48,0.05-1.08,0.05-1.08
		c0.7-0.12,1.46-0.12,2.2-0.05c0,0-0.1,0.65-0.1,1.13c0,1.41,0.41,1.44,3.4,1.44c1.32,0,1.49-0.24,1.49-1.92
		c0-2.4-0.1-2.52-2.76-2.52C137.78,32.63,136.82,32.36,136.82,28.38z"/>
</g>
</svg>
