<svg id="design" xmlns="http://www.w3.org/2000/svg" viewBox="0 0 425.2 425.2"><defs><style>.cls-1{fill:none;}.cls-2{fill:#0300a0;}.cls-3{fill:#e4d0f0;}.cls-4{fill:#e5f036;}</style></defs><title>Logo-transparent</title><g id="Capa_1" data-name="Capa 1"><path class="cls-1" d="M310.79,275.46a3.88,3.88,0,0,0-3.9,3.28h7.86A3.82,3.82,0,0,0,310.79,275.46Z"/><path class="cls-1" d="M121.83,276.83a5,5,0,1,0,5,5A4.92,4.92,0,0,0,121.83,276.83Z"/><path class="cls-1" d="M84.12,265.41c-1.09-.5-2.53-.71-5.51-.71H76.83v8.85H79a13.41,13.41,0,0,0,5.34-.71,3.75,3.75,0,0,0,2.12-3.66A3.81,3.81,0,0,0,84.12,265.41Z"/><path class="cls-1" d="M202.22,172.89h22.64l0-17.4a12.41,12.41,0,0,0-.15-1.82,10.3,10.3,0,0,0-.23-1.21,10.59,10.59,0,0,0-2.72-5,10.76,10.76,0,0,0-3.41-2.32l-.07,0c-.28-.12-.56-.23-.85-.33l-.18-.05c-.25-.08-.5-.16-.75-.22l-.17,0c-.26-.06-.52-.12-.77-.16h-.06a8.62,8.62,0,0,0-.87-.11l-.39,0a9,9,0,0,0-1.16,0q-.45,0-.87.06a9.05,9.05,0,0,0-.93.13l-.67.14a11.34,11.34,0,0,0-1.13.35l-.38.14a9.75,9.75,0,0,0-1.3.63l-.15.08a10.28,10.28,0,0,0-1.32.91l0,0a10.32,10.32,0,0,0-1.17,1.12l-.06.07a10.47,10.47,0,0,0-.94,1.25,1.34,1.34,0,0,1-.11.14,12,12,0,0,0-.81,1.55c-.08.18-.14.37-.21.55a12.74,12.74,0,0,0-.66,2.69c0,.31-.09.61-.1.92s0,.36,0,.54,0,.13,0,.2v17.23Z"/><path class="cls-1" d="M339.14,254a1.92,1.92,0,0,0-.75-1.31,21.47,21.47,0,0,0-3.81-2.48.83.83,0,0,0-.45,0c-1.69.62-2.5,1.51-2.5,2.17a2.05,2.05,0,0,0,.95,1.52,8,8,0,0,0,4.5,1.25C338.45,255.16,339.11,254.5,339.14,254Z"/><path class="cls-1" d="M213.58,207.38l.34,0a10.86,10.86,0,0,0,9.92-6.63,12.43,12.43,0,0,0,1-4.46,1.7,1.7,0,0,0,0-.22.28.28,0,0,0,0-.09V180.47H202.19v25.74a33.23,33.23,0,0,0,3.5.78l.21,0c.65.1,1.31.18,2,.23l.43.05c.7,0,1.4.08,2.1.08h3.2Z"/><path class="cls-2" d="M169.88,202.4v56.19H202.2l0-25h14.34A40.68,40.68,0,0,0,257.17,193V180.47h-3.28a38.35,38.35,0,0,1,.45,5.73v1.68h0V193a37.9,37.9,0,0,1-26.59,36.12l-.08,0h0a40.71,40.71,0,0,0,22.11-36.24l0-12.4H247l0,12.4a38,38,0,0,1-26.53,36.19h0a40.69,40.69,0,0,0,22-36.09v-12.5H239.6V193a37.83,37.83,0,0,1-18.21,32.33l.17-.15c.39-.34.77-.68,1.14-1s.89-.86,1.32-1.31.77-.83,1.14-1.25.68-.8,1-1.21.83-1.08,1.23-1.64c.21-.3.43-.6.64-.92.47-.7.91-1.43,1.34-2.18.16-.29.33-.57.49-.87.43-.79.83-1.61,1.21-2.45q.18-.39.36-.81c.38-.88.73-1.78,1-2.71l.24-.72c.32-1,.62-2,.87-3,.06-.21.1-.42.15-.63.26-1.06.48-2.14.66-3.25,0-.16,0-.33.08-.49.17-1.16.32-2.34.42-3.55,0-.1,0-.2,0-.3.09-1.27.15-2.56.15-3.87h0V180.47h-2.82V193h0c0,1.22-.06,2.41-.14,3.59,0,.1,0,.2,0,.3-.09,1.11-.22,2.19-.39,3.26,0,.17,0,.34-.07.51-.17,1-.37,2-.6,3l-.15.67c-.23.91-.5,1.8-.78,2.67-.09.27-.17.54-.27.8-.28.81-.59,1.61-.92,2.39-.13.31-.26.61-.4.91-.33.73-.67,1.43-1,2.12-.18.34-.36.67-.55,1-.34.58-.69,1.16-1,1.72-.26.4-.53.79-.8,1.17s-.57.79-.87,1.17-.8,1-1.22,1.49c-.26.3-.53.59-.8.88-.48.51-1,1-1.49,1.49l-.81.75-.1.08h0v0c.37-.5.72-1,1.07-1.53.14-.21.3-.41.44-.63s.3-.53.46-.79a40.66,40.66,0,0,0,2.63-5c.32-.75.6-1.53.88-2.3.09-.25.2-.49.28-.74a40.75,40.75,0,0,0,2.11-13h0c0-.21,0-.43,0-.65s0-.24,0-.36h0v-.11c0-.3,0-.6,0-.9h0v0c0-.26,0-.51,0-.77V196h0v-.12l0-12.43v-2.94h-2.82V196a.28.28,0,0,1,0,.09,1.7,1.7,0,0,1,0,.22,12.43,12.43,0,0,1-1,4.46,10.86,10.86,0,0,1-9.92,6.63l-.34,0h-3.2c-.7,0-1.4,0-2.1-.08l-.43-.05c-.65-.05-1.31-.13-2-.23l-.21,0a33.23,33.23,0,0,1-3.5-.78V155.66c0-.07,0-.14,0-.2s0-.36,0-.54.07-.61.1-.92a12.74,12.74,0,0,1,.66-2.69c.07-.18.13-.37.21-.55a12,12,0,0,1,.81-1.55,1.34,1.34,0,0,0,.11-.14,10.47,10.47,0,0,1,.94-1.25l.06-.07a10.32,10.32,0,0,1,1.17-1.12l0,0a10.28,10.28,0,0,1,1.32-.91l.15-.08a9.75,9.75,0,0,1,1.3-.63l.38-.14a11.34,11.34,0,0,1,1.13-.35l.67-.14c.31-.06.61-.1.93-.13s.57-.05.87-.06a9,9,0,0,1,1.16,0l.39,0a8.62,8.62,0,0,1,.87.11h.06c.25,0,.51.1.77.16l.17,0c.25.06.5.14.75.22l.18.05c.29.1.57.21.85.33l.07,0a10.76,10.76,0,0,1,3.41,2.32,10.59,10.59,0,0,1,2.72,5,10.3,10.3,0,0,1,.23,1.21,12.41,12.41,0,0,1,.15,1.82l0,17.4h2.83l0-17.39a14.38,14.38,0,0,0-.21-2.36,13,13,0,0,0-1.17-3.89v0h0l.22.21.27.25c.33.34.65.7,1,1.07.08.09.16.17.23.26.3.37.59.76.87,1.16a2.83,2.83,0,0,0,.2.28q.39.6.75,1.23c0,.11.12.21.18.32.22.41.42.84.62,1.28.05.12.11.23.16.35.18.43.34.88.49,1.33,0,.13.09.25.13.39.14.45.25.91.36,1.38,0,.13.07.26.1.4.1.49.17,1,.23,1.5,0,.11,0,.23.05.35.06.62.1,1.25.1,1.88h0v10h2.82v-10h0c0-.73,0-1.45-.11-2.17,0-.15-.05-.29-.07-.43-.07-.57-.14-1.14-.25-1.69,0-.16-.09-.32-.13-.49-.12-.53-.24-1-.4-1.56-.05-.16-.11-.31-.16-.47-.17-.51-.35-1-.56-1.5-.06-.15-.13-.28-.19-.43-.22-.49-.45-1-.7-1.46l-.22-.37c-.27-.48-.55-.95-.86-1.4a4.15,4.15,0,0,0-.24-.34l-.08-.12a25.07,25.07,0,0,1,8.5,18.8v3.64h2.83v-3.64a27.76,27.76,0,0,0-5.67-16.8l0,0a30.95,30.95,0,0,1,10,20.41h2.84a34,34,0,0,0-2.15-9.53,48.15,48.15,0,0,1,4.49,9.53h5.14V152.61A41,41,0,0,0,248.91,128a24.46,24.46,0,0,0-1.94-2.25l0,0A24.82,24.82,0,0,0,245,124l-.41-.35c-.58-.47-1.2-.91-1.82-1.33l-.71-.47c-.59-.36-1.2-.7-1.82-1l-.83-.41c-.65-.31-1.3-.59-2-.84l-.69-.24a23.48,23.48,0,0,0-2.35-.69l-.29-.07a26.8,26.8,0,0,0-7-.65H210.53a40.67,40.67,0,0,0-40.65,40.65V202.4Zm41.71-74.63c.12-.13.25-.24.37-.36.47-.47,1-.93,1.47-1.36l.46-.37c.53-.41,1.06-.81,1.61-1.18l.43-.27c.61-.38,1.22-.73,1.86-1l.32-.17a22.81,22.81,0,0,1,2.23-.93l.08,0c.66-.23,1.34-.42,2-.6.39-.1.79-.18,1.19-.26l.76-.14c.31-.05.62-.13.93-.16h0c.5-.05,1-.09,1.6-.12h1.56c.75,0,1.5,0,2.23.12l.73.1c.6.08,1.2.18,1.79.31.41.09.82.2,1.23.31s.83.23,1.24.36c.57.19,1.12.42,1.67.65l.77.32c.64.3,1.26.64,1.87,1,.17.1.34.18.5.29a20.17,20.17,0,0,1,1.78,1.24c.16.12.33.23.49.36.49.39.94.83,1.4,1.26.22.21.46.4.68.63s.45.53.68.79c.38.42.76.82,1.11,1.27A37.57,37.57,0,0,1,251,137a36.93,36.93,0,0,1,1.6,4.17v0a40.59,40.59,0,0,0-8.92-11.56,26.12,26.12,0,0,0-19.58-6.56,24.78,24.78,0,0,0-12.52,4.64ZM224.34,126a23.29,23.29,0,0,1,17.45,5.85,37.84,37.84,0,0,1,10.79,16.79v0A40.73,40.73,0,0,0,236.79,132c-.22-.13-.46-.23-.68-.36A24.79,24.79,0,0,0,209.93,133,21.74,21.74,0,0,1,224.34,126Zm10.52,8.26c.17.09.35.17.52.27a38,38,0,0,1,17.13,21.24v0a40.59,40.59,0,0,0-25.74-20.49,22.73,22.73,0,0,0-17.48,2.38q-.53.32-1,.66h0C214.75,131,225.79,129.26,234.86,134.21Zm-28.28-11.76.13,0a40.79,40.79,0,0,0-22.09,36.12V195h0c-.34-.38-.68-.76-1-1.15a42,42,0,0,1-3.53-4.75V158.61a38,38,0,0,1,26.5-36.16Zm-1,3.85-.14.13c-.45.39-.89.79-1.32,1.21s-.74.73-1.1,1.11-.89,1-1.31,1.45-.57.68-.84,1c-.46.58-.91,1.18-1.33,1.8-.17.24-.35.47-.51.72-.5.75-1,1.53-1.41,2.33l-.42.73c-.44.82-.84,1.66-1.23,2.52-.12.26-.23.51-.34.77-.37.87-.72,1.76-1,2.67-.1.28-.19.55-.28.83-.3.91-.57,1.85-.82,2.8l-.21.89c-.22,1-.42,1.93-.59,2.92,0,.31-.09.63-.14.95-.14,1-.27,2-.35,3,0,.33,0,.68-.07,1-.06.91-.09,1.82-.1,2.75,0,.21,0,.42,0,.63v42.9a39.22,39.22,0,0,1-4.53-3.56V158.53A37.9,37.9,0,0,1,205.54,126.3Zm-32.84,39v-6.77a37.88,37.88,0,0,1,23.12-34.85c1.16-.49,2.35-.92,3.57-1.3h0c-.3.16-.6.3-.89.46a40.79,40.79,0,0,0-21.24,35.77v25.48c-.58-1.19-1.12-2.39-1.6-3.62a44.52,44.52,0,0,1-2.12-7.38,1.42,1.42,0,0,1,0-.2c0-.19-.08-.38-.11-.57q-.13-.72-.24-1.44c-.11-.74-.2-1.47-.26-2.21,0-.28-.05-.57-.07-.85-.05-.76-.09-1.51-.09-2.27,0-.07,0-.15,0-.23h0Zm0,90.47h0v-42h0c.22.57.44,1.13.68,1.68.13.29.28.56.41.85.51,1.08,1.08,2.14,1.69,3.18l.53.91c.34.54.71,1.07,1.07,1.6.06.07.1.15.15.22l0,33.6Zm11.92-26.29v26.29h-4.54v-.56l0-29.51v0h0c.23.24.46.46.7.69s.67.65,1,.95.71.61,1.08.89.7.52,1.06.77l.67.46h0ZM192,255.77h-4.53V231.05h0l.75.33,1.18.5q.63.24,1.29.45c.43.14.87.26,1.31.38Zm6.32-22.15h1.07l0,22.15h-4.59V233.29h0c.26,0,.54.1.81.13l.12,0c.55.07,1.11.1,1.68.12l.85.06m17.12-9.84c-.24.25-.49.48-.74.72s-.59.56-.9.82-.69.56-1,.82-.59.45-.9.66-.77.5-1.16.73-.61.36-.92.52-.83.44-1.26.63l-.93.39c-.45.19-.9.36-1.36.52l-1,.27c-.47.14-.94.28-1.43.38s-.79.14-1.18.21-.83.15-1.25.2h-.16c-.33,0-.65.06-1,.09s-.93,0-1.4,0h-.52a23,23,0,0,1-4.48-.52l-.17,0-.87-.23c-.42-.11-.83-.23-1.24-.36s-.77-.26-1.14-.4-.73-.3-1.09-.46-.89-.41-1.32-.63-.82-.43-1.22-.66c-.08-.05-.16-.12-.25-.17-.32-.2-.64-.42-.95-.64s-.63-.45-.94-.69l-1-.82c-.29-.25-.56-.51-.84-.78s-.59-.55-.86-.85c-.53-.57-1-1.15-1.53-1.78h0l0,0c-.2-.24-.37-.51-.58-.82-.11-.15-.21-.31-.31-.46-.38-.53-.75-1.07-1.09-1.62a1.71,1.71,0,0,1-.13-.23,37.9,37.9,0,0,1-2.1-3.92c0-.12-.12-.24-.17-.36-.27-.61-.52-1.23-.76-1.86-.08-.21-.17-.42-.25-.64-.17-.49-.33-1-.49-1.48a40.53,40.53,0,0,0,8.88,11.46,22.42,22.42,0,0,0,1.86,1.52,26.15,26.15,0,0,0,15.53,5.13q1.11,0,2.22-.09a24.81,24.81,0,0,0,12.43-4.59Zm1.82-5.42a21.72,21.72,0,0,1-14.47,7.18,23.28,23.28,0,0,1-15.63-4.34,20.34,20.34,0,0,1-1.86-1.5,37.81,37.81,0,0,1-10.8-16.82h0a40.71,40.71,0,0,0,15.8,16.58,26,26,0,0,0,5.06,2.22,25.22,25.22,0,0,0,7.74,1.22,24.11,24.11,0,0,0,14.17-4.56Zm-21.3.55a23.14,23.14,0,0,1-4.25-1.88,38,38,0,0,1-17.14-21.31v0a40.63,40.63,0,0,0,18.18,17.67,41.32,41.32,0,0,0,7.57,2.82,23.75,23.75,0,0,0,4.52.72c.5,0,1,.05,1.5.05a22,22,0,0,0,12.49-3.83A21.45,21.45,0,0,1,195.91,218.91Zm17.68-8.71h0l.58-.05a14.29,14.29,0,0,0,5.32-1.23h0v0a18.55,18.55,0,0,1-12.92,5.24,21.54,21.54,0,0,1-5.59-.68,38,38,0,0,1-28-32h0a49.06,49.06,0,0,0,4.44,8.8,45.14,45.14,0,0,0,7.17,8.78l.44.45a40.87,40.87,0,0,0,4,3.3,2.48,2.48,0,0,0,.26.19c.39.28.78.56,1.19.83s.77.51,1.16.76l.31.2.71.45c.38.22.76.41,1.13.61.58.31,1.16.6,1.75.88.33.16.67.31,1,.46s.7.31,1,.45l.75.3q.93.36,1.86.66l.12,0c.79.25,1.58.46,2.38.65l.16,0c.73.17,1.48.31,2.23.44l.44.07c.65.09,1.31.17,2,.23l.56.05c.76,0,1.52.09,2.29.09h3.19m-6.33-81.6c-.51.7-1,1.4-1.48,2.13-.35.54-.66,1.11-1,1.67-.22.38-.46.74-.66,1.13-.39.72-.73,1.46-1.07,2.2-.11.24-.24.47-.34.71-.31.72-.58,1.46-.85,2.19-.1.28-.22.56-.32.84-.23.66-.41,1.33-.6,2-.11.38-.23.75-.33,1.13-.14.57-.24,1.15-.36,1.72s-.23,1-.31,1.5-.12.92-.18,1.39c-.09.64-.18,1.27-.23,1.92,0,.33,0,.67-.06,1,0,.68-.09,1.35-.1,2v.43h0c0,.34,0,.67,0,1h0v.09c0,.3,0,.62,0,.92h0c0,.27,0,.54,0,.81v0h0V205.3h0a36.88,36.88,0,0,1-4.54-2.11h0V158.53c0-.21,0-.42,0-.64q0-1.24.09-2.46c0-.36.05-.72.08-1.08.07-.89.18-1.76.3-2.62l.15-1c.15-.88.32-1.74.52-2.59.07-.33.15-.66.23-1,.21-.83.45-1.64.7-2.44l.33-1c.27-.76.55-1.52.86-2.26.14-.33.29-.66.44-1,.32-.7.65-1.39,1-2.07l.57-1c.29-.49.58-1,.88-1.45s.64-1,1-1.45.5-.69.75-1c.44-.57.9-1.13,1.37-1.67l.63-.71c.57-.62,1.15-1.21,1.76-1.77.16-.16.33-.31.5-.46s.22-.22.34-.32Zm6.22,14.1h0m0-1.41c-.15,0-.29,0-.44,0-.41,0-.8,0-1.2.09s-.59.08-.89.13-.83.16-1.24.27l-.76.23c-.41.14-.82.29-1.21.46l-.15.06h0a17.23,17.23,0,0,1,4.08-3A20.06,20.06,0,0,1,226.07,138a37.76,37.76,0,0,1,28,32.22s0,.05,0,.08c-6-15.64-20.14-29-37.55-29h-3.07Z"/><path class="cls-2" d="M91,257.81c-3.09-1.48-7.11-2.08-12.51-2.08H65v39.58H76.83V282.08h1.89c5.68,0,10.1-.88,13.32-2.68A11.3,11.3,0,0,0,98.24,269C98.24,263.44,95.31,259.83,91,257.81Zm-6.71,15a13.41,13.41,0,0,1-5.34.71H76.83V264.7h1.78c3,0,4.42.21,5.51.71a3.81,3.81,0,0,1,2.29,3.77A3.75,3.75,0,0,1,84.29,272.84Z"/><path class="cls-2" d="M121.83,267.81c-9.47,0-16.3,6.12-16.3,14.05s6.83,14.05,16.3,14.05,16.3-6.12,16.3-14.05S131.3,267.81,121.83,267.81Zm0,19.08a5,5,0,1,1,5-5A4.92,4.92,0,0,1,121.83,286.89Z"/><rect class="cls-2" x="148.29" y="253.54" width="11.36" height="41.76"/><polygon class="cls-2" points="184.97 281.37 184.86 281.37 179.86 268.41 168.16 268.41 179.4 292.36 171.83 307.33 183.19 307.33 201.16 268.41 190.42 268.41 184.97 281.37"/><rect class="cls-2" x="209.65" y="253.54" width="11.36" height="41.76"/><rect class="cls-2" x="232.84" y="268.41" width="11.36" height="26.89"/><path class="cls-2" d="M238.53,253.82a5.64,5.64,0,1,0,6,5.63A5.78,5.78,0,0,0,238.53,253.82Z"/><path class="cls-2" d="M275.49,267.81a14.32,14.32,0,0,0-8.21,2.73l-.11-.05v-2.08H256v26.9H267.4V278.14a5.84,5.84,0,0,1,3.73-1.42,3,3,0,0,1,2.18.77,3.51,3.51,0,0,1,.8,2.57v15.25h11.36V278.42c0-3.94-.91-6.34-2.75-8A10.81,10.81,0,0,0,275.49,267.81Z"/><path class="cls-2" d="M310.85,267.81c-8,0-15.32,5.47-15.32,14.32,0,8.53,6.83,13.78,16.81,13.78a29.16,29.16,0,0,0,11-2.08v-8.2a21.48,21.48,0,0,1-9.47,2.52c-3,0-5.74-1-6.83-3.83h17.73a19.76,19.76,0,0,0,.18-2.73C325,271.91,317.79,267.81,310.85,267.81Zm-4,10.93a3.88,3.88,0,0,1,3.9-3.28,3.82,3.82,0,0,1,4,3.28Z"/><path class="cls-2" d="M352.23,278.58c-4.3-1.15-6.65-.82-6.65-2.19,0-.65.57-1,1.95-1a28.86,28.86,0,0,1,11.19,3.06V270a33.13,33.13,0,0,0-11.59-2.19c-7.47,0-13.09,3.5-13.15,9.29,0,3.89,2.47,6.4,7.92,7.88,4.25,1.14,6.78.82,6.78,2.29,0,.77-.69,1.09-2.07,1.09a29.07,29.07,0,0,1-11.48-3.06v8.42a32.73,32.73,0,0,0,11.65,2.19c7.63,0,13.43-3.45,13.49-9.46C360.27,282.35,357.69,280.06,352.23,278.58Z"/><path class="cls-3" d="M249.8,180.47l0,12.4a40.83,40.83,0,0,1-22.11,36.24h0l.08,0A37.9,37.9,0,0,0,254.34,193v-5.08h0V186.2a38.35,38.35,0,0,0-.45-5.73Z"/><path class="cls-3" d="M252,172.89a48.15,48.15,0,0,0-4.49-9.53,34,34,0,0,1,2.15,9.53Z"/><path class="cls-3" d="M242.42,172.89h4.43a30.95,30.95,0,0,0-10-20.41l0,0a27.75,27.75,0,0,1,5.66,16.8Z"/><path class="cls-3" d="M239.9,214.89a37.93,37.93,0,0,0,7.06-22l0-12.4h-4.56V193a40.68,40.68,0,0,1-22,36.09h0A38,38,0,0,0,239.9,214.89Z"/><path class="cls-3" d="M235.07,193h0c0,1.31-.06,2.6-.15,3.87,0,.1,0,.2,0,.3-.1,1.21-.25,2.39-.42,3.55,0,.16,0,.33-.08.49-.18,1.11-.4,2.19-.66,3.25-.05.21-.09.42-.15.63-.25,1-.55,2-.87,3l-.24.72c-.32.93-.67,1.83-1,2.71q-.18.42-.36.81c-.38.84-.78,1.66-1.21,2.45-.16.3-.33.58-.49.87-.43.75-.87,1.48-1.34,2.18-.21.32-.43.62-.64.92-.4.56-.8,1.11-1.23,1.64s-.66.81-1,1.21-.75.84-1.14,1.25-.87.88-1.32,1.31-.75.69-1.14,1l-.17.15A37.83,37.83,0,0,0,239.6,193v-12.5h-4.53Z"/><path class="cls-3" d="M231.42,150.91c.31.45.59.92.86,1.4l.22.37c.25.48.48,1,.7,1.46.06.15.13.28.19.43.21.49.39,1,.56,1.5.05.16.11.31.16.47.16.51.28,1,.4,1.56,0,.17.09.33.13.49.11.55.18,1.12.25,1.69,0,.14.05.28.07.43.07.72.11,1.44.11,2.17h0v10h4.53v-3.64a25.07,25.07,0,0,0-8.5-18.8l.08.12A4.15,4.15,0,0,1,231.42,150.91Z"/><path class="cls-3" d="M222.18,220.59c.27-.29.54-.58.8-.88.42-.49.83-1,1.22-1.49s.59-.77.87-1.17.54-.77.8-1.17c.36-.56.71-1.14,1-1.72.19-.33.37-.66.55-1,.37-.69.71-1.39,1-2.12.14-.3.27-.6.4-.91.33-.78.64-1.58.92-2.39.1-.26.18-.53.27-.8.28-.87.55-1.76.78-2.67l.15-.67c.23-1,.43-1.95.6-3,0-.17.05-.34.07-.51.17-1.07.3-2.15.39-3.26,0-.1,0-.2,0-.3.08-1.18.13-2.37.14-3.59h0V180.47h-4.57v2.94l0,12.43V196h0v.08c0,.26,0,.51,0,.77v0h0c0,.3,0,.6,0,.9v.11h0c0,.12,0,.24,0,.36s0,.44,0,.65h0a40.75,40.75,0,0,1-2.11,13c-.08.25-.19.49-.28.74-.28.77-.56,1.55-.88,2.3a40.66,40.66,0,0,1-2.63,5c-.16.26-.3.54-.46.79s-.3.42-.44.63c-.35.52-.7,1-1.07,1.53v0h0l.1-.08.81-.75C221.2,221.6,221.7,221.1,222.18,220.59Z"/><path class="cls-3" d="M227.24,151.78a13,13,0,0,1,.26,1.36,14.38,14.38,0,0,1,.21,2.36l0,17.39h4.56v-10h0c0-.63,0-1.26-.1-1.88,0-.12,0-.24-.05-.35-.06-.51-.13-1-.23-1.5,0-.14-.07-.27-.1-.4-.11-.47-.22-.93-.36-1.38,0-.14-.09-.26-.13-.39-.15-.45-.31-.9-.49-1.33,0-.12-.11-.23-.16-.35-.2-.44-.4-.87-.62-1.28-.06-.11-.13-.21-.18-.32q-.36-.63-.75-1.23a2.83,2.83,0,0,1-.2-.28c-.28-.4-.57-.79-.87-1.16-.07-.09-.15-.17-.23-.26-.31-.37-.63-.73-1-1.07l-.27-.25-.22-.21h0v0A12.92,12.92,0,0,1,227.24,151.78Z"/><path class="cls-3" d="M195.93,139.33c.39-.86.79-1.7,1.23-2.52l.42-.73c.45-.8.91-1.58,1.41-2.33.16-.25.34-.48.51-.72.42-.62.87-1.22,1.33-1.8.27-.35.55-.69.84-1s.86-1,1.31-1.45.72-.75,1.1-1.11.87-.82,1.32-1.21l.14-.13a37.9,37.9,0,0,0-18.1,32.23v39.34a39.22,39.22,0,0,0,4.53,3.56v-42.9c0-.21,0-.42,0-.63,0-.93,0-1.84.1-2.75,0-.33,0-.68.07-1,.08-1,.21-2,.35-3,0-.32.09-.64.14-.95.17-1,.37-2,.59-2.92l.21-.89c.25-1,.52-1.89.82-2.8.09-.28.18-.55.28-.83.31-.91.66-1.8,1-2.67C195.7,139.84,195.81,139.59,195.93,139.33Z"/><path class="cls-3" d="M206.71,122.41l-.13,0a38,38,0,0,0-26.5,36.16v30.51a42,42,0,0,0,3.53,4.75c.33.39.67.77,1,1.15h0V158.53A40.79,40.79,0,0,1,206.71,122.41Z"/><path class="cls-3" d="M198.5,122.84c.29-.16.59-.3.89-.46h0c-1.22.38-2.41.81-3.57,1.3a37.88,37.88,0,0,0-23.12,34.85v6.77h0v0c0,.07,0,.15,0,.22,0,.76,0,1.51.09,2.27,0,.28,0,.57.07.85.06.74.15,1.47.26,2.21q.1.72.24,1.44c0,.19.07.38.11.57a1.42,1.42,0,0,0,0,.2,44.52,44.52,0,0,0,2.12,7.38c.47,1.23,1,2.43,1.6,3.62V158.61A40.79,40.79,0,0,1,198.5,122.84Z"/><path class="cls-3" d="M206.45,129.33c-.61.56-1.19,1.15-1.76,1.77l-.63.71c-.47.54-.93,1.1-1.37,1.67-.25.34-.51.68-.75,1s-.66,1-1,1.45-.59,1-.88,1.45l-.57,1c-.35.68-.68,1.37-1,2.07-.15.33-.3.66-.44,1-.31.74-.59,1.5-.86,2.26l-.33,1c-.25.8-.49,1.61-.7,2.44-.08.32-.16.65-.23,1-.2.85-.37,1.71-.52,2.59l-.15,1c-.12.86-.23,1.73-.3,2.62,0,.36-.05.72-.08,1.08q-.07,1.22-.09,2.46c0,.22,0,.43,0,.64v44.66h0a36.88,36.88,0,0,0,4.54,2.11h0V155.51h0v0c0-.27,0-.54,0-.81h0c0-.3,0-.62,0-.92v-.09h0c0-.34,0-.67,0-1h0v-.43c0-.69.06-1.36.1-2,0-.34,0-.68.06-1,.05-.65.14-1.28.23-1.92.06-.47.1-.93.18-1.39s.2-1,.31-1.5.22-1.15.36-1.72c.1-.38.22-.75.33-1.13.19-.67.37-1.34.6-2,.1-.28.22-.56.32-.84.27-.73.54-1.47.85-2.19.1-.24.23-.47.34-.71.34-.74.68-1.48,1.07-2.2.2-.39.44-.75.66-1.13.32-.56.63-1.13,1-1.67.46-.73,1-1.43,1.48-2.13l0-.06c-.12.1-.23.21-.34.32S206.61,129.17,206.45,129.33Z"/><path class="cls-3" d="M198.27,233.62l-.85-.06c-.57,0-1.13-.05-1.68-.12l-.12,0c-.27,0-.55-.09-.81-.13h0v22.48h4.59l0-22.15h-1.09Z"/><path class="cls-3" d="M189.37,231.87l-1.18-.5-.75-.33h0v24.72H192V232.7c-.44-.12-.88-.24-1.31-.38S189.79,232,189.37,231.87Z"/><path class="cls-3" d="M183.94,229c-.36-.25-.71-.5-1.06-.77s-.73-.58-1.08-.89-.7-.63-1-.95-.47-.45-.7-.69h0v0l0,29.51v.56h4.54V229.44h0Z"/><path class="cls-3" d="M177.08,222c-.36-.53-.73-1.06-1.07-1.6l-.53-.91c-.61-1-1.18-2.1-1.69-3.18-.13-.29-.28-.56-.41-.85-.24-.55-.46-1.11-.68-1.68h0v42h4.56l0-33.6C177.18,222.1,177.14,222,177.08,222Z"/><path class="cls-2" d="M292,231.3a9.75,9.75,0,0,0-6.07-2c-.93,0-4.38.09-5.54.15s-2,0-2.48,0c-.29,0-.71.2-.71.35s.45.42.74.45l1.31.12c.84.12.9.68.42,2.44-.77,3-2.74,9.26-3.63,11.47-1.13,2.71-1.19,2.92-2.92,3.24-.45.06-.74.18-.74.42s.38.36.74.36c.65,0,2.23-.12,3.16-.12,1.22,0,4.4.12,5.39.12,4.2,0,6.16-.89,7.86-1.85a10.61,10.61,0,0,0,5.12-9.11A8.11,8.11,0,0,0,292,231.3ZM286,246a8.81,8.81,0,0,1-4.2,1.6,3.08,3.08,0,0,1-1.88-.77,1.75,1.75,0,0,1-.24-.86c0-.3.81-3,2.15-7.48,1.39-4.71,2.26-7.18,2.5-7.71a1.32,1.32,0,0,1,.8-.69,4.73,4.73,0,0,1,3.87,2.06,9.42,9.42,0,0,1,1.34,5A11.22,11.22,0,0,1,286,246Z"/><path class="cls-2" d="M306.13,236a7.64,7.64,0,0,0-5.75,3.19,10.13,10.13,0,0,0-2.17,5.83c0,2.27,1.49,3.58,2.89,3.58a5.94,5.94,0,0,0,4.94-2.77,2.78,2.78,0,0,0,.51-1.25c0-.18-.21-.33-.27-.27-1.28,1.43-2.56,2.11-3.3,2.11-1,0-1.32-.68-1.32-1.7a9.52,9.52,0,0,1,.33-2.35l.24-.27a11,11,0,0,0,4.68-1.31,3.49,3.49,0,0,0,1.75-2.94C308.66,237.11,307.92,236,306.13,236Zm-3.72,5.45a.14.14,0,0,1-.12-.18c.92-2.74,2.53-4.71,3.63-4.71.27,0,.48.27.48.78C306.4,239,304.08,241.13,302.41,241.46Z"/><path class="cls-2" d="M317.45,236a5.53,5.53,0,0,0-3,1.37,4.44,4.44,0,0,0-1.81,3.07,4.14,4.14,0,0,0,1,2.59c1.31,1.81,1.88,2.59,1.88,3.12a.93.93,0,0,1-1,1c-.89,0-2.08-1-2.83-1.85-.32-.39-.53-.3-.65-.18a2.57,2.57,0,0,0-.72,1.58,2,2,0,0,0,2.12,1.91,6.82,6.82,0,0,0,3.25-1.16c1.25-.78,2.38-2,2.35-3.22a4.54,4.54,0,0,0-1.07-2.62c-1.23-1.58-2.12-2.8-2.12-3.43a.74.74,0,0,1,.69-.77,4.13,4.13,0,0,1,1.81,1.13,1.61,1.61,0,0,0,.81.42,1.87,1.87,0,0,0,1.28-1.43,1.27,1.27,0,0,0-.27-.75A2.37,2.37,0,0,0,317.45,236Z"/><path class="cls-2" d="M328.33,244.68a6.81,6.81,0,0,1-2.36,1.6.29.29,0,0,1-.24-.35c.81-1.82,2.39-5.28,3.25-7.57a4.63,4.63,0,0,0,.33-1.43.87.87,0,0,0-.78-.92c-1.67,0-3.6,1.19-5.3,3.13a.81.81,0,0,0-.27.59c0,.15.18.24.6-.12a7.16,7.16,0,0,1,1.67-1.22c.09,0,.27.3.15.6-1.05,2.35-1.79,4.2-2.42,5.63a7.73,7.73,0,0,0-.8,2.83,1.11,1.11,0,0,0,1,1.16,8,8,0,0,0,5.21-3.13,1.5,1.5,0,0,0,.3-.77C328.74,244.5,328.5,244.56,328.33,244.68Z"/><path class="cls-2" d="M328.62,233.89a2,2,0,0,0,1.85-2,1.38,1.38,0,0,0-1.31-1.52,2,2,0,0,0-1.88,2A1.37,1.37,0,0,0,328.62,233.89Z"/><path class="cls-2" d="M345.21,236.72h-2.56a3.87,3.87,0,0,1-.95-.29,6,6,0,0,0-1.85-.45,7.21,7.21,0,0,0-3.93,1.37,6.85,6.85,0,0,0-2.95,5.27,3.16,3.16,0,0,0,2,2.89c.06,0,0,.18,0,.21a5.12,5.12,0,0,1-1.13.74,1.35,1.35,0,0,0-.78,1,3,3,0,0,0,.9,2.17c.05.09-.09.18-.15.18a9.56,9.56,0,0,0-3.31,1,2.56,2.56,0,0,0-1.46,2,3,3,0,0,0,1.49,2.17,8.83,8.83,0,0,0,4.71,1.19,11.31,11.31,0,0,0,4.88-1.43,3.08,3.08,0,0,0,1.64-2.26,4.36,4.36,0,0,0-1.67-2.83,15.8,15.8,0,0,0-2.29-1.64c-1.4-.92-2.36-1.4-2.36-1.9,0-.24.21-.3.39-.39a6.75,6.75,0,0,1,1.52-.27,5.86,5.86,0,0,0,3.57-1.85A7.16,7.16,0,0,0,343,239a6.22,6.22,0,0,0-.12-1c.42.08,1.43.35,1.73.35a1.16,1.16,0,0,0,.83-1C345.42,237,345.33,236.72,345.21,236.72Zm-6.82,16a1.92,1.92,0,0,1,.75,1.31c0,.47-.69,1.13-2.06,1.13a8,8,0,0,1-4.5-1.25,2.05,2.05,0,0,1-.95-1.52c0-.66.81-1.55,2.5-2.17a.83.83,0,0,1,.45,0A21.47,21.47,0,0,1,338.39,252.72Zm-1.31-8.19a1.48,1.48,0,0,1-.89.5c-.39,0-.54-.3-.54-1.07a13.1,13.1,0,0,1,2.8-6.46c.69-.69,1-.87,1.46-.9.21,0,.54.27.51.87C340.39,238.81,338.6,243.16,337.08,244.53Z"/><path class="cls-2" d="M360.85,244a6.76,6.76,0,0,1-2.65,1.61c-.15,0-.3-.12-.18-.42.33-.77,1.43-3.57,2.24-5.36a8.4,8.4,0,0,0,.56-2.26,1.42,1.42,0,0,0-1.43-1.55,5.55,5.55,0,0,0-2.92,1A15.85,15.85,0,0,0,353.2,240c-.18.21-.36.15-.21-.15a16.38,16.38,0,0,0,.92-2.14,1.33,1.33,0,0,0-1.22-1.67,5.34,5.34,0,0,0-4.76,3.57c0,.15.12.3.17.3s.18-.09.33-.21a3.74,3.74,0,0,1,2-1.22c.24,0,.5.18.3.48-.9,1.81-2.21,5.18-3.19,7.53a3.58,3.58,0,0,0-.33,1.25c0,.42.72,1,1.61,1a.91.91,0,0,0,.74-.45c.27-.39,3.34-6.31,5-8.43,1.34-1.82,2.2-2.35,2.8-2.35.24,0,.53.33-.06,1.79s-3.52,7.62-3.67,8a1.39,1.39,0,0,0,.12,1.13.78.78,0,0,0,.6.3c1.82,0,4.94-1.85,6.37-3.67a1.57,1.57,0,0,0,.42-.95C361.18,243.87,361,243.87,360.85,244Z"/><polygon class="cls-2" points="60.31 180.47 169.88 180.47 169.88 176.89 169.88 172.89 60.31 172.89 60.31 180.47"/><path class="cls-4" d="M213.45,141.3c-.15,0-.29,0-.44,0-.41,0-.8,0-1.2.09s-.59.08-.89.13-.83.16-1.24.27l-.76.23c-.41.14-.82.29-1.21.46l-.15.06h0a17.23,17.23,0,0,1,4.08-3A20.06,20.06,0,0,1,226.07,138a37.76,37.76,0,0,1,28,32.22s0,.05,0,.08c-6-15.64-20.14-29-37.55-29h-3.07Z"/><path class="cls-4" d="M209.3,137.65a22.73,22.73,0,0,1,17.48-2.38,40.59,40.59,0,0,1,25.74,20.49v0a38,38,0,0,0-17.13-21.24c-.17-.1-.35-.18-.52-.27-9.07-5-20.11-3.19-26.58,4.1h0Q208.78,138,209.3,137.65Z"/><path class="cls-4" d="M236.11,131.67c.22.13.46.23.68.36a40.73,40.73,0,0,1,15.8,16.59v0a37.84,37.84,0,0,0-10.79-16.79A23.29,23.29,0,0,0,224.34,126,21.74,21.74,0,0,0,209.93,133,24.79,24.79,0,0,1,236.11,131.67Z"/><path class="cls-4" d="M243.68,129.7a40.59,40.59,0,0,1,8.92,11.56v0A36.93,36.93,0,0,0,251,137a37.57,37.57,0,0,0-4.32-7.31c-.35-.45-.73-.85-1.11-1.27-.23-.26-.44-.54-.68-.79s-.46-.42-.68-.63c-.46-.43-.91-.87-1.4-1.26-.16-.13-.33-.24-.49-.36a20.17,20.17,0,0,0-1.78-1.24l-.5-.29c-.61-.36-1.23-.7-1.87-1l-.77-.32c-.55-.23-1.1-.46-1.67-.65-.41-.13-.83-.25-1.24-.36s-.82-.22-1.23-.31c-.59-.13-1.19-.23-1.79-.31l-.73-.1c-.73-.07-1.48-.11-2.23-.12h-1.56c-.56,0-1.1.07-1.6.12h0c-.31,0-.62.11-.93.16l-.76.14c-.4.08-.8.16-1.19.26-.69.18-1.37.37-2,.6l-.08,0a22.81,22.81,0,0,0-2.23.93l-.32.17c-.64.32-1.25.67-1.86,1l-.43.27c-.55.37-1.08.77-1.61,1.18l-.46.37c-.51.43-1,.89-1.47,1.36-.12.12-.25.23-.37.36h0a24.78,24.78,0,0,1,12.52-4.64A26.12,26.12,0,0,1,243.68,129.7Z"/><path class="cls-4" d="M213.59,210.21h-3.2c-.77,0-1.53,0-2.29-.09l-.56-.05c-.66-.06-1.32-.14-2-.23l-.44-.07c-.75-.13-1.5-.27-2.23-.44l-.16,0c-.8-.19-1.59-.4-2.38-.65l-.12,0q-.93-.3-1.86-.66l-.75-.3q-.52-.21-1-.45c-.35-.15-.69-.3-1-.46-.59-.28-1.17-.57-1.75-.88-.37-.2-.75-.39-1.13-.61l-.71-.45-.31-.2c-.39-.25-.78-.5-1.16-.76s-.8-.55-1.19-.83a2.48,2.48,0,0,1-.26-.19,40.87,40.87,0,0,1-4-3.3l-.44-.45a45.14,45.14,0,0,1-7.17-8.78,49.06,49.06,0,0,1-4.44-8.8h0a38,38,0,0,0,28,32,21.54,21.54,0,0,0,5.59.68,18.55,18.55,0,0,0,12.92-5.24v0h0a14.29,14.29,0,0,1-5.32,1.23l-.58.05h0"/><path class="cls-4" d="M195.31,221.69a26,26,0,0,1-5.06-2.22,40.71,40.71,0,0,1-15.8-16.58h0a37.81,37.81,0,0,0,10.8,16.82,20.34,20.34,0,0,0,1.86,1.5,23.28,23.28,0,0,0,15.63,4.34,21.72,21.72,0,0,0,14.47-7.18h0a24.11,24.11,0,0,1-14.17,4.56A25.22,25.22,0,0,1,195.31,221.69Z"/><path class="cls-4" d="M200.76,228.45a26.15,26.15,0,0,1-15.53-5.13,22.42,22.42,0,0,1-1.86-1.52,40.53,40.53,0,0,1-8.88-11.46c.16.5.32,1,.49,1.48.08.22.17.43.25.64.24.63.49,1.25.76,1.86,0,.12.12.24.17.36a37.9,37.9,0,0,0,2.1,3.92,1.71,1.71,0,0,0,.13.23c.34.55.71,1.09,1.09,1.62.1.15.2.31.31.46.21.31.38.58.58.82l0,0h0c.48.63,1,1.21,1.53,1.78.27.3.57.57.86.85s.55.53.84.78l1,.82c.31.24.62.47.94.69s.63.44.95.64c.09.05.17.12.25.17.4.23.81.45,1.22.66s.88.43,1.32.63.72.32,1.09.46.76.27,1.14.4.82.25,1.24.36l.87.23.17,0a23,23,0,0,0,4.48.52h.52c.47,0,.94,0,1.4,0s.67-.05,1-.09h.16c.42-.05.83-.14,1.25-.2s.79-.12,1.18-.21,1-.24,1.43-.38l1-.27c.46-.16.91-.33,1.36-.52l.93-.39q.65-.28,1.26-.63c.31-.16.62-.34.92-.52s.78-.47,1.16-.73.6-.43.9-.66.71-.53,1-.82.6-.54.9-.82.5-.47.74-.72h0A24.81,24.81,0,0,1,203,228.36Q201.87,228.45,200.76,228.45Z"/><path class="cls-4" d="M204.8,217a23.75,23.75,0,0,1-4.52-.72,41.32,41.32,0,0,1-7.57-2.82,40.63,40.63,0,0,1-18.18-17.67v0A38,38,0,0,0,191.66,217a23.14,23.14,0,0,0,4.25,1.88,21.45,21.45,0,0,0,22.88-5.74A22,22,0,0,1,206.3,217C205.8,217,205.3,217,204.8,217Z"/><polygon class="cls-2" points="257.17 172.89 257.16 172.89 257.1 172.89 257.09 172.89 255.75 172.89 255.68 172.89 254.99 172.89 254.97 172.89 254.35 172.89 254.34 172.89 254.28 172.89 254.27 172.89 253.55 172.89 252.04 172.89 252.03 172.89 249.69 172.89 249.69 172.89 248.26 172.89 246.85 172.89 246.85 172.89 242.44 172.89 242.43 172.89 241.01 172.89 239.62 172.89 239.6 172.89 235.07 172.89 233.66 172.89 232.25 172.89 227.69 172.89 227.69 172.89 226.28 172.89 224.87 172.89 224.86 172.89 202.22 172.89 202.2 172.89 202.19 180.47 202.22 180.47 224.86 180.47 224.86 180.47 226.27 180.47 227.68 180.47 227.68 180.47 232.25 180.47 233.66 180.47 235.07 180.47 239.6 180.47 239.62 180.47 241.01 180.47 242.43 180.47 242.44 180.47 246.98 180.47 246.98 180.47 248.39 180.47 249.8 180.47 249.8 180.47 253.89 180.47 253.9 180.47 254.34 180.47 254.35 180.47 255.33 180.47 255.75 180.47 256.73 180.47 256.74 180.47 257.16 180.47 257.17 180.47 364.88 180.47 364.88 172.89 257.17 172.89"/></g></svg>